
<svg x="1228" y="220">
<g>
	<path fill="#474747" d="M289.2,152.9c-5-4.3-5.7-13.3-8.5-28.9c-2.8-15.6-4.2-29.2-3.5-43.5c0.7-14.3-0.3-17.6-4.3-27.5
		s-1.7-12.3,1-20.9c2.7-8.6,8-8.3,6.7-12.3s-5.3-11.6-13.3-15.6c-8-4-15.7-5.6-25.7-3c-10,2.7-9.7,10.9-12.3,20.9
		c-2.7,10-10,15.3-22.7,19.9c-12.7,4.6-44,10.9-44,10.9l0,0c12.4,0.5,23.7,4.8,33.1,12.9c10.5,9,17.6,21.7,20.1,35.7l0,0
		c0,0-0.9-4.4,3.4-13.8c4.4-9.5,13-10,23-15.7c10-5.8,15.3,3.4,18.7,11.1c3.3,7.6,2.7,11.3,2.7,11.3s-4,6-8.7,13.9
		c-4.7,8-1.3,14.3,9,30.2c10.3,15.9,29,25.9,31.3,24.2C297.6,161.2,294.2,157.2,289.2,152.9z"/>
	<g>
		<path fill="#474747" d="M105.2,49.5c-13.3,3.7-10,8.6-21.6,11.5c-12.1,3-31.7,7-37.5,9.2c-5.8,2.1-35.5,11.7-40.5,13.1
			c-5,1.3-8.7,7.3-2,14.9c6.7,7.6,4.3,10.3,4,14.3c-0.3,4,4,10.9,11.3,9c7.3-2,29-9.3,33.7-10.9c4.7-1.7,3.7-6,11.7-8.3
			c8-2.3,21-5.3,29.3-7.6c8.3-2.3,12.9,5.3,24.3,1.7c0.6-0.2,1.2-0.4,1.7-0.6L105.2,49.5z"/>
		<path fill="#474747" d="M138.9,68.3c-4-18.2-16.7-22.9-32-19.2c-0.3,0.1-0.5,0.1-0.7,0.2l14.4,46
			C133.9,90.8,142.7,85.4,138.9,68.3z"/>
	</g>
	<path fill="#303030" d="M216.7,109.4c-1-17-8.6-32.9-21-43.5c-11.4-9.8-25.6-14.1-41.1-12.7c-28.2,2.7-44.4,5.5-45.1,5.7
		c-7.3,1.3-12.2,8.3-10.9,15.6c1.3,7.3,8.3,12.2,15.7,10.9c0.2,0,15.9-2.8,42.9-5.4c8.1-0.8,15.1,1.4,20.9,6.3
		c6.7,5.8,11.1,15,11.6,24.6c0.4,7.7-3.3,19.4-10.5,33.1c-6.8,13-15.1,24.4-20.1,30.3c-5.9,6.9-33.7,19-80.8,29.1
		c-1.3,0.3-2.5,0.7-3.6,1.3c0.1,4.1,0.6,8.8,1.8,13.8c1.2,5.2,2.7,8.9,4.1,11.4c0.2,0,0.3,0,0.5,0c0.9,0,1.9-0.1,2.9-0.3
		c19.8-4.3,39.1-9.5,54.2-14.9c21-7.4,34.6-15,41.6-23.2C190.7,178.9,218.4,139.3,216.7,109.4z"/>
</g>
</svg>
