<svg id="saddle" x="0px" y="0px">
<desc>Saddle, origin at 108,10</desc>
<path fill="#303030" d="M145.3,59H83c-13.8,0-26.3-18.3-26.8-19.1l5-3.4C64.2,41.1,74.2,53,83,53h62.4c13.4,0,18.8-3.8,32-12.9
	c13.5-9.3,22.8-16.3,22.9-16.4l3.6,4.8c-0.1,0.1-9.5,7.1-23.1,16.5C167.3,54.3,160.6,59,145.3,59z M58.6,38.2l2.5-1.7c0,0,0,0,0,0
	L58.6,38.2z"/>
<path fill="#474747" d="M1,6.2c1.6-7.3,19.5-7,27.9-5s20.9,4,40.3,6.3s44.5,4.2,77.4,1c33-3.2,80.4-4.2,92.1-2
	c11.4,2.1,23,9.5,26.2,16.1c3.2,6.6,9.6,17.1-5.5,14.3c-15.1-2.8-39.7-10.4-82-5.6s-68.6,13.8-83.9,16.3c-15.3,2.5-26,0.9-52.4-9.3
	S2.8,30,1.4,20.3S-0.8,14,1,6.2z"/>
</svg>
