<?xml version="1.0" encoding="utf-8"?>
<!-- Generator: Adobe Illustrator 18.1.0, SVG Export Plug-In . SVG Version: 6.00 Build 0)  -->
<!DOCTYPE svg PUBLIC "-//W3C//DTD SVG 1.1//EN" "http://www.w3.org/Graphics/SVG/1.1/DTD/svg11.dtd">
<svg version="1.1" id="Layer_1" xmlns="http://www.w3.org/2000/svg" xmlns:xlink="http://www.w3.org/1999/xlink" x="0px" y="0px"
	 viewBox="0 0 2000 1236" enable-background="new 0 0 2000 1236" xml:space="preserve">
<g>
	<path fill="#303030" d="M1487.5,508c-193.3,0-350,156.7-350,350s156.7,350,350,350s350-156.7,350-350S1680.8,508,1487.5,508z
		 M1487.5,1151c-161.8,0-293-131.2-293-293s131.2-293,293-293s293,131.2,293,293S1649.3,1151,1487.5,1151z"/>
	<path fill="#274FA0" d="M1487.5,540c-175.6,0-318,142.4-318,318s142.4,318,318,318s318-142.4,318-318S1663.1,540,1487.5,540z
		 M1487.5,1151c-161.8,0-293-131.2-293-293s131.2-293,293-293s293,131.2,293,293S1649.3,1151,1487.5,1151z"/>
	<circle fill="#274FA0" cx="1487.5" cy="858" r="30"/>
</g>
<g>
	<path fill="#303030" d="M496,508c-193.3,0-350,156.7-350,350s156.7,350,350,350s350-156.7,350-350S689.3,508,496,508z M496,1151
		c-161.8,0-293-131.2-293-293s131.2-293,293-293s293,131.2,293,293S657.8,1151,496,1151z"/>
	<path opacity="0.56" fill="#274FA0" d="M496,540c-175.6,0-318,142.4-318,318s142.4,318,318,318s318-142.4,318-318
		S671.6,540,496,540z M496,1151c-161.8,0-293-131.2-293-293s131.2-293,293-293s293,131.2,293,293S657.8,1151,496,1151z"/>
	<circle fill="#274FA0" cx="496" cy="858" r="30"/>
</g>
<circle fill="#9E2876" cx="924" cy="921" r="19"/>
<line fill="none" stroke="#9E2876" stroke-width="17" stroke-miterlimit="10" x1="772.4" y1="425" x2="496" y2="858"/>
<polyline fill="none" stroke="#9E2876" stroke-width="30" stroke-miterlimit="10" points="924,921 772.4,425 763.2,395 "/>
<polyline fill="none" stroke="#9E2876" stroke-width="46" stroke-miterlimit="10" points="1274.5,368.9 1285.8,403.9 1299.3,445.4 
	1315.7,496 "/>
<path fill="none" stroke="#9E2876" stroke-width="17" stroke-miterlimit="10" d="M496,858"/>
<line fill="none" stroke="#9E2876" stroke-width="22" stroke-miterlimit="10" x1="496" y1="858" x2="924" y2="921"/>
<circle fill="#9E2876" cx="496" cy="858" r="12.5"/>
<line fill="none" stroke="#9E2876" stroke-width="30" stroke-miterlimit="10" x1="772.4" y1="425" x2="1285.8" y2="403.9"/>
<line fill="none" stroke="#9E2876" stroke-width="30" stroke-miterlimit="10" x1="924" y1="921" x2="1299.3" y2="445.4"/>
<path fill="#7AFF73" d="M1337.6,488.9c0,0,153.8,345.9,162.2,364.2c10.1,22.3-15.9,29.5-25.4,12.7c-20.6-36.4-64.8-125.8-89.8-171.3
	s-56-96.5-68.5-125.5s-22.1-65.9-22.1-65.9L1337.6,488.9z"/>
<line fill="none" stroke="#7AFF73" stroke-width="34" stroke-miterlimit="10" x1="1249.6" y1="292.5" x2="1274.5" y2="368.9"/>
</svg>
